<?xml version="1.0" encoding="utf-8"?>
<!-- Generator: Adobe Illustrator 23.0.6, SVG Export Plug-In . SVG Version: 6.00 Build 0)  -->
<svg version="1.1" id="Layer_1" xmlns="http://www.w3.org/2000/svg" xmlns:xlink="http://www.w3.org/1999/xlink" x="0px" y="0px"
	 viewBox="0 0 580.7 647.4" style="enable-background:new 0 0 580.7 647.4;" xml:space="preserve">
<g>
	<path d="M168.5,548.2c-7.6,14.7-14.1,27-21.5,38.8c-6.9,11.1-14.7,23.7-24.5,31.8c-5.4,4.5-13.5,6.9-22.2,6.9
		c-2.7,0-5.4-0.2-8.1-0.7c-6.1-1-14.3-4.3-18.4-13.8c-6-13.7-1.8-32,9.6-42.5c2.7-2.5,5.7-4.4,8.9-5.6c5.6-2.2,8.3-8.5,6.1-14.1
		c-1.7-4.3-5.8-6.9-10.1-6.9c-1.3,0-2.7,0.2-4,0.8c-5.7,2.2-10.9,5.6-15.6,9.8c-18.2,16.8-24.5,45-14.8,67.1
		c6.1,14.1,18.8,23.8,34.7,26.5c3.9,0.7,7.9,1,11.7,1c13.8,0,26.7-4.2,36-11.9c12.5-10.3,21.3-24.5,29.1-37.1
		c7.7-12.4,14.5-25.1,22.3-40.3c3.6-7.1,7.3-14.3,10.9-21.8c-6.3-3.9-12.3-8.1-18.1-12.3C176.5,532.3,172.5,540.4,168.5,548.2z"/>
	<path d="M570.2,366.9c-6.4-6.1-15.4-9.9-24.7-10.3c-0.6,0-1.3,0-1.9,0c-18.3,0-33,12.5-40.9,24.4c-3.3,5-1.9,11.7,3.1,15
		c1.8,1.2,3.9,1.8,6,1.8c3.5,0,7-1.7,9.1-4.9c4.5-6.8,13-14.7,22.7-14.7c0.3,0,0.6,0,0.9,0c4.1,0.2,8.1,1.8,10.8,4.4
		c3.2,3.1,3.9,7.9,3.8,11.4c-0.1,10-4.2,21.7-11.6,32.9c-6.5,9.9-15.4,18.8-25.5,25.7c-13.5,9.1-31.2,16.6-47.9,16.6
		c-8.4,0-16.6-1.9-24-6.4c-6.1-3.7-10.4-9.1-12.1-15.1c-1.8-6.4-1.6-14.1,0.9-24.9c3.4-14.7,9.6-28.5,16.2-43.1
		c2.2-4.8,4.3-9.6,6.3-14.4c2.3-5.3,4.5-10.7,6.8-16c2.8-6.6,5.6-13.3,8.4-19.9c0.7-1.6,1.4-3.2,2.1-4.9c2.4-5.5,4.9-11.2,7-17.1
		l0.9-2.5c1-2.8,1.9-5.4,3-7.8l0.2-0.4c5.8-12-1.4-17.7-3.7-19.1c-1.8-1.1-3.7-1.6-5.7-1.6c-2.6,0-5.2,0.9-7.3,2.8
		c-52.4,47.4-102.3,68.5-116.4,73.9c-9-4.9-16.5-12.9-22.2-19.5c-9.5-11.2-18-23.1-25.1-33.2c-2.3-3.3-4.6-6.6-7-9.9
		c0.6-1.6,1.3-3.2,1.9-4.9c4.7-11.8,9.6-24.1,11.6-37.4c2.3-15.2,0.5-28.1-5.4-38.2c-6.5-11.2-18.3-17.8-30.3-17.8
		c-2.7,0-5.4,0.3-8,1c-14.6,3.8-25,17.2-25.2,32.7c-0.1,10.1,3.2,19.1,6.2,25.9c3,6.8,6.7,13.8,11.3,21.4c4.2,7,8.8,13.7,13.4,20.3
		c-8.1,20.5-16.4,41.1-24.4,61.1l-7.8,19.3c-10.6,26.3-23.2,57.4-37,89c-0.1,0.3-0.2,0.5-0.4,0.8c1.5,1.2,3,2.3,4.5,3.5
		c4.3,3.2,8.8,6.5,13.4,9.6c0.8-1.7,1.5-3.5,2.3-5.2c13.9-31.9,26.6-63.2,37.2-89.6l7.8-19.3c6.4-15.8,12.9-31.9,19.3-48.1
		c7.1,10.2,15.6,21.9,25.1,33c7.9,9.3,19,20.8,33.8,27.2c1.4,0.6,2.8,0.9,4.3,0.9c1.1,0,2.3-0.2,3.4-0.5c2.1-0.7,45.1-15,97.5-54.5
		c-0.1,0.2-0.2,0.4-0.3,0.6c-2.9,6.7-5.7,13.3-8.5,20c-2.2,5.3-4.5,10.6-6.7,15.9c-2,4.7-4.1,9.3-6.2,14
		c-6.7,14.9-13.7,30.3-17.5,47.1c-2.1,9.1-4.4,22.6-0.6,35.7c3.2,11.2,10.9,21,21.6,27.6c11,6.7,23,9.5,35.1,9.5
		c21.7,0,43.6-9,60.3-20.2c12.5-8.5,23.4-19.5,31.5-31.7c6.8-10.4,15-26.6,15.1-44.7C580.8,383,577.2,373.6,570.2,366.9z
		 M294.5,244.8c-1.2,8-3.9,15.9-7,24c-1.5-2.4-3-4.7-4.5-7.1c-4.1-6.7-7.4-12.9-10-18.8c-3.1-7-4.4-12.2-4.4-16.8
		c0.1-5.7,3.8-10.7,9-12c0.9-0.2,1.8-0.3,2.6-0.3c4.8,0,9.3,3.3,11.5,7.1C295.9,227.9,295.6,237.7,294.5,244.8z"/>
	<path d="M346,419.2c-2.7-0.7-5.8-1.1-9-1.1c-13,0-29.2,6.2-41.1,24.4c-3.3,5-1.9,11.7,3.1,15c1.8,1.2,3.9,1.8,6,1.8
		c3.5,0,7-1.7,9.1-4.9c5.1-7.7,13.7-14.7,22.7-14.7c1.4,0,2.7,0.2,4.1,0.5c4.8,1.2,8.7,4.3,10.5,8.4c2.4,5.6,1.6,12.6,0.5,17.5
		c-6.3,28-32.3,50.5-61.8,53.5c-2.6,0.3-5.2,0.4-7.7,0.4c-16.1,0-31.6-5-46-12.3c-3.2-1.6-6.4-3.4-9.5-5.2c-3.1-1.8-6.2-3.8-9.3-5.8
		c-6-4-11.9-8.2-17.5-12.4c-0.2-0.1-0.4-0.3-0.5-0.4c-2.9-2.2-5.9-4.5-8.9-6.8c-2.9-2.3-5.9-4.6-8.8-6.9c-2.8-2.2-5.5-4.3-8.2-6.5
		c-12.4-9.8-25-19.8-38.1-29.2c0.4-0.8,0.8-1.6,1.2-2.3c18.1-35.8,32.3-72.6,44.9-107c11.8-32.2,23.2-65.1,34.2-97l9.6-27.8
		c2.2-6.4,4.4-12.9,6.7-19.4c12.4-2.8,24.7-7.8,36.5-14.7c23.7-14,44.3-35.2,59.5-61.5c10.6-18.3,16.9-34.9,19.3-50.6
		c2.7-17.4,0.2-31.3-7.4-41.4c-6.4-8.5-16-12.9-26-12.9c-6.6,0-13.4,2-19.6,6c-7.2,4.7-12.2,11-16.2,16.6
		c-4.4,6.2-8.6,12.9-12.8,20.6c-4.5,8.3-8.9,17-13.3,26.6c-3.9,8.4-7.6,17-11.4,26.3c-8.9,21.6-17,43.7-24.7,65.7
		c-2.9,0.3-5.8,0.4-8.8,0.4c-7.2,0-14.9-0.7-23.5-2.1c-5.9-1-11.9-2.1-17.7-3.2c-8.8-1.7-18-3.5-27.2-4.7c-15.2-2-28.9-3-41.7-3
		c-1.9,0-3.8,0-5.6,0.1c-13.7,0.3-29.6,1.8-43.4,9.9c-14.2,8.4-22.9,23.5-23.3,40.3c-0.3,17.2,7.7,33.5,20.9,42.3
		c7.8,5.3,17.2,7.9,26.5,7.9c8.7,0,17.4-2.3,24.6-7c5-3.3,6.4-10,3.2-15c-2.1-3.2-5.6-4.9-9.1-4.9c-2,0-4.1,0.6-5.9,1.8
		c-3.6,2.3-8.1,3.5-12.7,3.5c-5.1,0-10.3-1.4-14.5-4.2c-7.1-4.7-11.5-14.1-11.3-23.9c0.2-9.3,4.9-17.5,12.6-22.1
		c9.5-5.6,22-6.6,32.9-6.9c1.7,0,3.5-0.1,5.3-0.1c11.7,0,24.4,0.9,38.6,2.9c8.6,1.2,17.5,2.9,26,4.5c5.9,1.1,12.1,2.3,18.2,3.3
		c9.8,1.6,18.7,2.4,27.1,2.4c0.4,0,0.8,0,1.2,0c-1.1,3.2-2.2,6.4-3.3,9.6l-9.6,27.8c-11,31.7-22.3,64.6-34,96.6
		c-12.4,33.8-26.2,69.8-43.8,104.6c-3.9-2.4-7.8-4.8-11.7-7.1c-13.3-7.6-30.4-15.9-48.9-15.9c-2.3,0-4.6,0.1-6.9,0.4
		c-19.2,2.2-35.7,14.5-44,32.9c-8.3,18.4-7.4,39.1,2.5,54c8.9,13.6,24.7,21.2,43,21.2c2.5,0,5.1-0.1,7.7-0.4
		c18.4-2.1,35.1-11.7,48.4-27.9c6.7-8.2,12.6-17.1,17.7-25.8c12,8.7,23.7,17.9,35.1,27c4.1,3.2,8.3,6.5,12.5,9.8
		c2.9,2.3,5.9,4.5,8.8,6.8c1.9,1.4,3.7,2.9,5.6,4.3c1.1,0.8,2.2,1.6,3.2,2.4c5.8,4.3,11.8,8.5,18.1,12.5c3.1,2,6.2,3.8,9.3,5.7
		c3.1,1.8,6.3,3.5,9.6,5.1c16.9,8.5,35.2,14.3,54.9,14.3c3.3,0,6.7-0.2,10.1-0.5c38.5-3.9,72.5-33.5,80.8-70.3
		c2.6-11.6,2-22-1.7-30.7C366.8,429.9,357.4,422,346,419.2z M260.4,104.4c3.7-9.1,7.4-17.4,11.1-25.5c4.2-9.1,8.3-17.4,12.7-25.3
		c3.8-6.9,7.5-12.9,11.4-18.4c2.8-3.9,6.3-8.4,10.5-11.1c2.2-1.5,5-2.3,7.7-2.3c3.2,0,6.4,1.2,8.6,4.2c4.9,6.5,4.5,17.2,3.3,25
		c-2,13-7.5,27.1-16.7,43.1c-13.3,23-31.2,41.6-51.7,53.6c-5.5,3.2-11,5.9-16.6,8.1C246.9,138.5,253.4,121.2,260.4,104.4z
		 M90.3,465.9c-9.8,11.9-21.2,18.7-34,20.1c-1.1,0.1-2.8,0.3-4.9,0.3c-7.2,0-18.8-1.7-25.2-11.4c-5.7-8.7-6-21.7-0.8-33.1
		c5.1-11.4,15.1-18.9,26.7-20.3c1.5-0.2,2.9-0.2,4.4-0.2c13.5,0,27.4,6.8,38.2,13c4.1,2.3,8.2,4.8,12.2,7.4
		C102.1,449.9,96.6,458.3,90.3,465.9z"/>
</g>
</svg>
